<svg width="26" height="16" viewBox="0 0 26 16" fill="none" xmlns="http://www.w3.org/2000/svg">
<path d="M24.459 1.80085C24.6249 1.24052 24.459 0.828125 23.6611 0.828125H21.0208C20.3483 0.828125 20.039 1.18225 19.8732 1.57675C19.8732 1.57675 18.5284 4.85358 16.6277 6.97841C16.0136 7.59255 15.7312 7.78982 15.395 7.78982C15.2292 7.78982 14.9736 7.59255 14.9736 7.03222V1.80085C14.9736 1.12845 14.7853 0.828125 14.2295 0.828125H10.0784C9.65705 0.828125 9.40602 1.14194 9.40602 1.43328C9.40602 2.06978 10.3564 2.21771 10.455 4.01083V7.9019C10.455 8.75363 10.3026 8.91043 9.9664 8.91043C9.06985 8.91043 6.89121 5.62016 5.6002 1.85466C5.34025 1.12399 5.08465 0.828125 4.40779 0.828125H1.76735C1.01426 0.828125 0.861816 1.18225 0.861816 1.57675C0.861816 2.27598 1.75837 5.75019 5.03526 10.3405C7.21836 13.4739 10.2935 15.173 13.0907 15.173C14.7717 15.173 14.978 14.7964 14.978 14.1464C14.978 11.1519 14.8256 10.8694 15.6684 10.8694C16.0583 10.8694 16.7307 11.0667 18.2998 12.5773C20.0927 14.3704 20.3887 15.1729 21.3928 15.1729H24.0331C24.7863 15.1729 25.1673 14.7964 24.9476 14.0521C24.4456 12.4877 21.0521 9.26907 20.8997 9.0539C20.5097 8.55184 20.6217 8.32763 20.8997 7.87933C20.9043 7.87497 24.1272 3.33842 24.459 1.80085Z" fill="white"/>
</svg>
