<svg width="26" height="19" viewBox="0 0 26 19" fill="none" xmlns="http://www.w3.org/2000/svg">
<path d="M25.1559 4.52678C25.1559 4.52678 24.9095 2.78912 24.1546 2.02243C23.1954 1.01867 22.1202 1.01363 21.6276 0.953941C18.0976 0.699219 12.7989 0.699219 12.7989 0.699219C12.7989 0.699219 7.4993 0.699219 3.97017 0.954782C3.47754 1.01363 2.40232 1.01867 1.44312 2.02327C0.686519 2.78912 0.441043 4.52678 0.441043 4.52678C0.441043 4.52678 0.188843 6.22493 0.188843 8.26524V10.7881C0.188843 12.8284 0.441043 14.6039 0.441043 14.6039C0.441043 14.6039 0.686519 16.3407 1.44312 17.1065C2.40232 18.1111 3.66249 18.08 4.22405 18.1851C6.24166 18.3785 12.7989 18.3541 12.7989 18.3541C12.7989 18.3541 18.0976 18.4298 21.6276 18.175C22.1202 18.1162 23.1954 18.1111 24.1546 17.1065C24.9095 16.3415 25.1559 14.6039 25.1559 14.6039C25.1559 14.6039 25.4089 12.8292 25.4089 10.7889V8.26608C25.4089 6.22493 25.1559 4.52678 25.1559 4.52678ZM10.1124 12.8948V6.16945L16.8377 9.53212L10.1124 12.8948Z" fill="white"/>
</svg>
